<svg xmlns="http://www.w3.org/2000/svg" viewBox="0 0 60 60">
  <g fill="#464748">
    <circle cx="35" cy="52" r="1"/>
    <circle cx="39" cy="52" r="1"/>
    <circle cx="43" cy="52" r="1"/>
    <circle cx="33" cy="33" r="1"/>
    <circle cx="35" cy="22" r="1"/>
    <circle cx="39" cy="22" r="1"/>
    <circle cx="37" cy="20" r="1"/>
    <circle cx="39" cy="18" r="1"/>
    <circle cx="35" cy="26" r="1"/>
    <circle cx="33" cy="24" r="1"/>
    <circle cx="37" cy="24" r="1"/>
    <circle cx="33" cy="36" r="1"/>
    <circle cx="33" cy="39" r="1"/>
    <circle cx="33" cy="42" r="1"/>
    <circle cx="33" cy="45" r="1"/>
    <circle cx="33" cy="48" r="1"/>
    <circle cx="37" cy="50" r="1"/>
    <circle cx="41" cy="50" r="1"/>
    <path d="M24 11h-5c-.552 0-1 .447-1 1s.448 1 1 1h5c.552 0 1-.447 1-1s-.448-1-1-1zM24 18H14c-.552 0-1 .447-1 1s.448 1 1 1h10c.552 0 1-.447 1-1s-.448-1-1-1zM24 25H9c-.552 0-1 .447-1 1s.448 1 1 1h15c.552 0 1-.447 1-1s-.448-1-1-1zM24 32H5c-.552 0-1 .447-1 1s.448 1 1 1h19c.552 0 1-.447 1-1s-.448-1-1-1zM24 39H11c-.552 0-1 .447-1 1s.448 1 1 1h13c.552 0 1-.447 1-1s-.448-1-1-1zM24 46h-7c-.552 0-1 .447-1 1s.448 1 1 1h7c.552 0 1-.447 1-1s-.448-1-1-1zM53 54h-5v-6c0-7.591-4.147-14.44-10.714-18C43.853 26.44 48 19.591 48 12V6h5c1.654 0 3-1.346 3-3s-1.346-3-3-3H30c-.552 0-1 .447-1 1s.448 1 1 1h23c.551 0 1 .448 1 1s-.449 1-1 1H30c-.552 0-1 .447-1 1s.448 1 1 1h16v6c0 7.491-4.467 14.193-11.381 17.075-.001 0-.001 0-.002.001 0 0-.001.001-.002.001-.011.005-.018.014-.029.02-.107.049-.208.113-.293.198-.07.07-.117.155-.162.241-.016.029-.041.049-.054.08v.002c-.05.121-.076.251-.076.383s.026.262.075.382c0 0 0 .002.001.003.046.111.114.205.192.289.022.023.047.041.071.063.069.062.143.112.225.152.019.009.031.026.051.034C41.531 33.805 46 40.508 46 48v6c0-.552-.448-1-1-1s-1 .448-1 1h-2c0-.552-.448-1-1-1s-1 .448-1 1h-2c0-.552-.448-1-1-1s-1 .448-1 1h-2c0-.552-.448-1-1-1s-1 .448-1 1h-2c-.552 0-1 .447-1 1s.448 1 1 1h23c.551 0 1 .448 1 1s-.449 1-1 1H30c-.552 0-1 .447-1 1s.448 1 1 1h23c1.654 0 3-1.346 3-3s-1.346-3-3-3z"/>
  </g>
</svg>
